Coordinates
version=1
nRows=8
nColumns=40
inDegrees=yes

Units are S.I. units (second, meters, Newtons, ...)
Angles are in degrees.

endheader
time	pelvis_tilt	pelvis_list	pelvis_rotation	pelvis_tx	pelvis_ty	pelvis_tz	hip_flexion_r	hip_adduction_r	hip_rotation_r	knee_angle_r	knee_angle_r_beta	ankle_angle_r	subtalar_angle_r	mtp_angle_r	hip_flexion_l	hip_adduction_l	hip_rotation_l	knee_angle_l	knee_angle_l_beta	ankle_angle_l	subtalar_angle_l	mtp_angle_l	lumbar_extension	lumbar_bending	lumbar_rotation	arm_flex_r	arm_add_r	arm_rot_r	elbow_flex_r	pro_sup_r	wrist_flex_r	wrist_dev_r	arm_flex_l	arm_add_l	arm_rot_l	elbow_flex_l	pro_sup_l	wrist_flex_l	wrist_dev_l
     27.76814286	     -5.42356941	     -4.82593925	     13.04654793	      0.89781261	      0.91789353	      0.48334891	      6.91854893	      2.96083295	    -17.63750786	     18.50598284	     18.50598284	     17.64133367	     -7.68506796	     -3.20500398	     29.49186518	     -6.56061912	      0.54144128	     20.16099160	     20.16099160	      1.91445134	     -8.81393880	      1.35885909	     -8.66910126	      5.00348219	      4.83079437	     32.95376274	    -19.80857222	    -16.74728292	    102.38931524	     44.51427729	      0.00000000	      0.00000000	    -13.22789697	    -10.07851049	     13.43834141	     33.25772031	     44.05414600	      0.00000000	      0.00000000
     27.78628571	     -5.46044299	     -4.90738607	     13.03790334	      0.89752940	      0.91705260	      0.48042159	      6.80315031	      2.88546280	    -17.41984203	     18.94067009	     18.94067009	     17.96841423	     -8.07729326	     -2.85578280	     29.56447164	     -6.49915705	      0.74862424	     20.97075518	     20.97075518	      1.73130245	     -9.50195595	      0.68008674	     -8.67379230	      4.86223428	      4.78923967	     33.46024067	    -19.57398941	    -16.07463169	    102.27213161	     44.51742243	      0.00000000	      0.00000000	    -12.53814275	    -10.37731106	     13.73441814	     32.62992083	     44.06919798	      0.00000000	      0.00000000
     27.80442857	     -5.37045517	     -4.87161760	     13.06730991	      0.89750080	      0.91666493	      0.47714733	      6.37882095	      2.70896890	    -17.33492163	     19.13777617	     19.13777617	     18.14462015	     -8.18018820	     -2.85637681	     29.44210496	     -6.34243238	      0.86370340	     21.76397498	     21.76397498	      1.90905815	     -9.89699465	      0.46636882	     -8.80988222	      4.67040560	      4.86630568	     33.69283607	    -19.41206526	    -15.91929291	    102.24045255	     44.51653950	      0.00000000	      0.00000000	    -11.87555219	    -10.83260504	     13.67772046	     32.66605899	     44.09092529	      0.00000000	      0.00000000
     27.82257143	     -5.29346855	     -4.97160780	     13.05564728	      0.89739824	      0.91607199	      0.47358097	      6.11008217	      2.61361280	    -17.22959534	     19.55594010	     19.55594010	     18.36275353	     -8.35793375	     -2.77860677	     29.61480997	     -6.26376019	      1.23269146	     22.99793948	     22.99793948	      2.29535179	    -10.70187936	      0.31358279	     -8.89566393	      4.73015846	      4.92130319	     34.06805618	    -19.46874269	    -15.68431445	    102.00266268	     44.52517426	      0.00000000	      0.00000000	    -11.26175012	    -11.11388132	     13.74037548	     32.46034488	     44.10770322	      0.00000000	      0.00000000
     27.84071429	     -5.20038889	     -4.97217565	     13.03825279	      0.89742389	      0.91581310	      0.46973306	      5.70012512	      2.42048736	    -17.12443759	     19.79491589	     19.79491589	     18.48303817	     -8.42125915	     -2.68132541	     29.63631535	     -6.06728124	      1.56143308	     24.04549888	     24.04549888	      2.77327658	    -11.40722071	      0.34058760	     -8.99213317	      4.71187205	      4.97979416	     34.18198991	    -19.49369584	    -15.45172733	    101.62515166	     44.53607373	      0.00000000	      0.00000000	    -10.58878399	    -11.51902700	     13.74808350	     32.32319865	     44.12981287	      0.00000000	      0.00000000
     27.85885714	     -5.17734790	     -4.91765841	     13.04464009	      0.89756149	      0.91572067	      0.46576197	      5.24939154	      2.17049887	    -17.09828909	     19.84912127	     19.84912127	     18.51550869	     -8.44317840	     -2.61967031	     29.57608292	     -5.79671625	      1.79194398	     24.82092354	     24.82092354	      3.22627688	    -11.86835053	      0.26390001	     -8.99297454	      4.53386614	      5.01217084	     34.16706459	    -19.39557812	    -15.28398935	    101.36386761	     44.54104981	      0.00000000	      0.00000000	     -9.84403086	    -12.07118821	     13.66259440	     32.37084899	     44.15646304	      0.00000000	      0.00000000
     27.87700000	     -5.07479791	     -5.02490669	     12.98580164	      0.89769572	      0.91562615	      0.46154361	      4.75028925	      2.06730194	    -17.10768457	     19.91513043	     19.91513043	     18.55361597	     -8.23539659	     -2.55252472	     29.61934760	     -5.63525809	      2.28896178	     25.89713119	     25.89713119	      3.91853757	    -12.76846322	      0.70927112	     -9.01550119	      4.68485908	      5.22537963	     34.17831913	    -19.73960856	    -15.15839257	    100.47635588	     44.57175073	      0.00000000	      0.00000000	     -9.14152140	    -12.43865637	     13.63092384	     32.31758969	     44.18543863	      0.00000000	      0.00000000
     27.89514286	     -5.09037984	     -5.04215003	     12.91178305	      0.89782263	      0.91573842	      0.45720002	      4.25983340	      1.82708011	    -17.29087316	     19.80090439	     19.80090439	     18.54207170	     -7.73842779	     -2.45911561	     29.59838513	     -5.32777671	      2.74340689	     26.70930379	     26.70930379	      4.98703799	    -13.45216713	      2.37401815	     -8.87820999	      4.66633135	      5.42932153	     34.17305433	    -20.11098319	    -14.94698412	     98.87084150	     44.63136332	      0.00000000	      0.00000000	     -8.26818119	    -12.91401872	     13.60086488	     32.17388443	     44.23880731	      0.00000000	      0.00000000
